HIERARCHY
ROOT Hips
{
	OFFSET -0.001795 -0.223333 0.028219
	CHANNELS 6 Xposition Yposition Zposition Zrotation Yrotation Xrotation 
	JOINT LeftUpLeg
	{
		OFFSET 0.069520 -0.091406 -0.006815
		CHANNELS 3 Zrotation Yrotation Xrotation
		JOINT LeftLeg
		{
			OFFSET 0.034277 -0.375199 -0.004496
			CHANNELS 3 Zrotation Yrotation Xrotation
			JOINT LeftFoot
			{
				OFFSET -0.013596 -0.397961 -0.043693
				CHANNELS 3 Zrotation Yrotation Xrotation
				JOINT LeftToe
				{
					OFFSET 0.026358 -0.055791 0.119288
					CHANNELS 3 Zrotation Yrotation Xrotation
					End Site
					{
						OFFSET 0.000000 0.000000 0.000000
					}
				}
			}
		}
	}
	JOINT RightUpLeg
	{
		OFFSET -0.067670 -0.090522 -0.004320
		CHANNELS 3 Zrotation Yrotation Xrotation
		JOINT RightLeg
		{
			OFFSET -0.038290 -0.382569 -0.008850
			CHANNELS 3 Zrotation Yrotation Xrotation
			JOINT RightFoot
			{
				OFFSET 0.015774 -0.398415 -0.042312
				CHANNELS 3 Zrotation Yrotation Xrotation
				JOINT RightToe
				{
					OFFSET -0.025372 -0.048144 0.123348
					CHANNELS 3 Zrotation Yrotation Xrotation
					End Site
					{
						OFFSET 0.000000 0.000000 0.000000
					}
				}
			}
		}
	}
	JOINT Spine
	{
		OFFSET -0.002533 0.108963 -0.026696
		CHANNELS 3 Zrotation Yrotation Xrotation
		JOINT Spine1
		{
			OFFSET 0.005487 0.135180 0.001092
			CHANNELS 3 Zrotation Yrotation Xrotation
			JOINT Spine2
			{
				OFFSET 0.001457 0.052922 0.025425
				CHANNELS 3 Zrotation Yrotation Xrotation
				JOINT Neck
				{
					OFFSET -0.002778 0.213870 -0.042857
					CHANNELS 3 Zrotation Yrotation Xrotation
					JOINT Head
					{
						OFFSET 0.005152 0.064970 0.051349
						CHANNELS 3 Zrotation Yrotation Xrotation
						End Site
						{
							OFFSET 0.000000 0.000000 0.000000
						}
					}
				}
				JOINT LeftShoulder
				{
					OFFSET 0.078845 0.121749 -0.034090
					CHANNELS 3 Zrotation Yrotation Xrotation
					JOINT LeftArm
					{
						OFFSET 0.090977 0.030469 -0.008868
						CHANNELS 3 Zrotation Yrotation Xrotation
						JOINT LeftForeArm
						{
							OFFSET 0.259612 -0.012772 -0.027456
							CHANNELS 3 Zrotation Yrotation Xrotation
							JOINT LeftHand
							{
								OFFSET 0.249234 0.008986 -0.001171
								CHANNELS 3 Zrotation Yrotation Xrotation
								End Site
								{
									OFFSET 0.000000 0.000000 0.000000
								}
							}
						}
					}
				}
				JOINT RightShoulder
				{
					OFFSET -0.081759 0.118833 -0.038615
					CHANNELS 3 Zrotation Yrotation Xrotation
					JOINT RightArm
					{
						OFFSET -0.096012 0.032551 -0.009143
						CHANNELS 3 Zrotation Yrotation Xrotation
						JOINT RightForeArm
						{
							OFFSET -0.253742 -0.013329 -0.021401
							CHANNELS 3 Zrotation Yrotation Xrotation
							JOINT RightHand
							{
								OFFSET -0.255298 0.007772 -0.005559
								CHANNELS 3 Zrotation Yrotation Xrotation
								End Site
								{
									OFFSET 0.000000 0.000000 0.000000
								}
							}
						}
					}
				}
			}
		}
	}
}
MOTION
Frames: 11
Frame Time: 0.050000
-0.000061 0.847936 0.030355 -2.117289 -75.027922 19.382386 0.960221 18.460535 -51.660985 7.745075 9.137739 51.592947 1.239853 1.701022 1.632410 0.000000 0.000000 0.000000 -37.226894 11.833301 -46.551612 38.201565 1.928107 23.936229 -32.907978 -49.651572 36.733305 0.000000 0.000000 0.000000 12.728745 10.924822 52.787891 5.961508 -0.811119 -28.282029 -5.425571 -13.225255 22.564421 0.286191 -3.992844 -31.844417 0.000000 0.000000 0.000000 -27.076117 -15.055079 23.167780 -29.094177 -37.702144 0.967353 2.704836 -72.670395 5.342677 0.000000 0.000000 0.000000 -7.568281 30.507797 8.048765 11.978472 43.136918 -4.437808 -67.285791 21.473860 -25.662821 0.000000 0.000000 0.000000 
-0.000979 0.850058 0.028937 -1.427374 -75.231629 18.825350 1.386616 18.403705 -51.026120 6.923942 9.253782 50.024773 1.169986 1.600601 3.496851 0.000000 0.000000 0.000000 -36.708592 11.782744 -46.133530 37.160683 2.050581 23.653803 -32.117053 -49.312949 35.474296 0.000000 0.000000 0.000000 13.287449 10.750014 52.858348 6.045759 -0.830275 -28.102198 -5.348242 -12.772195 22.569264 1.045713 -4.351633 -31.033134 0.000000 0.000000 0.000000 -26.958768 -15.143683 23.014058 -30.434315 -37.955131 1.307376 2.157706 -72.476360 5.931078 0.000000 0.000000 0.000000 -8.305062 30.358457 8.148703 11.473321 42.736088 -4.530530 -66.937731 19.747181 -24.305639 0.000000 0.000000 0.000000 
-0.001744 0.854588 0.027734 -0.031812 -75.361126 17.658022 1.932701 17.920604 -49.706511 5.215279 9.695053 47.468239 1.817632 2.539429 4.989140 0.000000 0.000000 0.000000 -36.041565 11.657804 -45.349989 35.442285 2.199713 23.019848 -30.917822 -48.461493 34.095006 0.000000 0.000000 0.000000 13.868075 10.561020 52.932265 5.676747 -0.801198 -28.071073 -4.966922 -12.398260 22.705892 1.492310 -4.515912 -30.963445 0.000000 0.000000 0.000000 -26.621914 -15.189765 22.712145 -32.703141 -38.531763 2.029605 0.899371 -72.952549 7.326882 0.000000 0.000000 0.000000 -9.203221 30.167050 8.281869 10.056554 43.017634 -5.140631 -64.438647 16.359956 -20.805611 0.000000 0.000000 0.000000 
-0.002125 0.859770 0.026594 1.254464 -75.405460 16.675394 2.290794 17.249659 -48.339273 3.478796 9.855803 44.406159 2.888683 3.998289 6.524256 0.000000 0.000000 0.000000 -35.061942 11.486343 -44.396912 33.175149 2.334928 22.189964 -29.499952 -47.375204 32.452063 0.000000 0.000000 0.000000 14.662744 10.170837 52.784827 5.284237 -0.812698 -27.656921 -4.572456 -11.570771 22.589883 2.097107 -4.672795 -30.980618 0.000000 0.000000 0.000000 -25.942395 -15.240789 22.169387 -35.571288 -38.553515 2.815003 -2.213523 -73.310308 10.236503 0.000000 0.000000 0.000000 -11.326215 29.541044 8.539605 8.894524 44.014361 -6.023229 -61.402394 13.255895 -17.541999 0.000000 0.000000 0.000000 
-0.002079 0.863080 0.025638 1.964966 -75.747985 16.118812 2.613325 16.803228 -47.142368 3.095069 10.030959 43.526352 1.997443 2.706358 4.104407 0.000000 0.000000 0.000000 -34.498366 11.419730 -43.656230 31.787019 2.507239 21.176177 -28.466694 -46.492341 31.200974 0.000000 0.000000 0.000000 15.106487 10.075278 52.796309 5.106924 -0.786865 -27.672322 -4.160839 -10.483612 22.710281 2.782228 -4.918665 -30.670066 0.000000 0.000000 0.000000 -25.911475 -15.074208 21.783792 -37.424217 -38.204894 3.118551 -6.069305 -74.201721 13.688867 0.000000 0.000000 0.000000 -12.021934 29.513188 8.574217 6.948741 44.617052 -6.824313 -57.920873 10.036583 -14.053310 0.000000 0.000000 0.000000 
-0.001855 0.864778 0.024746 3.436504 -75.324468 15.116698 2.495395 16.320777 -46.767772 2.857661 9.737361 42.480370 0.698323 0.716874 3.151170 0.000000 0.000000 0.000000 -34.165253 11.247757 -43.012263 30.278833 2.491707 20.308258 -28.091735 -46.236281 30.141928 0.000000 0.000000 0.000000 15.781135 9.508165 52.362570 4.800570 -0.800588 -27.363324 -3.573026 -10.056758 22.580584 2.589001 -4.777842 -30.357351 0.000000 0.000000 0.000000 -25.351044 -14.949721 21.397846 -39.614398 -37.155285 3.316057 -11.665790 -75.156797 18.839084 0.000000 0.000000 0.000000 -13.904048 29.502070 8.826476 5.341665 45.275024 -7.829173 -55.647135 7.924044 -12.145096 0.000000 0.000000 0.000000 
-0.001618 0.865311 0.023903 4.097468 -75.324822 14.537811 2.600981 16.220993 -46.486564 2.794627 9.583105 41.896393 -0.117087 -0.538466 3.416297 0.000000 0.000000 0.000000 -34.383409 11.250993 -42.961893 30.282589 2.501162 20.038600 -28.134983 -46.226457 30.215529 0.000000 0.000000 0.000000 16.079455 9.479155 52.581522 5.122361 -0.834038 -27.311841 -3.362213 -9.464322 22.701900 2.740692 -4.777040 -30.117961 0.000000 0.000000 0.000000 -24.324194 -14.773463 20.499813 -42.201464 -35.415182 3.440737 -16.417512 -75.024948 23.015997 0.000000 0.000000 0.000000 -14.803854 29.953585 8.910657 3.681340 45.191083 -8.384950 -54.012682 6.980562 -10.935821 0.000000 0.000000 0.000000 
-0.001688 0.866876 0.022835 5.041840 -75.131244 13.813151 2.540603 15.829926 -46.062892 2.107554 9.364613 40.236300 0.378884 0.168368 4.562110 0.000000 0.000000 0.000000 -34.146209 11.172393 -42.678643 29.413301 2.478757 19.733069 -27.867689 -45.986439 29.791232 0.000000 0.000000 0.000000 16.331726 9.363123 52.609426 5.140951 -0.881434 -27.015402 -2.792601 -9.135025 22.520486 2.156270 -4.423648 -30.169881 0.000000 0.000000 0.000000 -23.054915 -14.381436 19.459619 -45.048887 -33.466247 3.554017 -22.154888 -74.855905 28.098392 0.000000 0.000000 0.000000 -15.845691 29.698116 9.014268 3.137298 45.534441 -8.786485 -53.658035 7.686828 -11.142037 0.000000 0.000000 0.000000 
-0.002123 0.869906 0.021598 5.348285 -74.751213 13.579900 2.777294 15.578198 -45.557587 1.688990 9.415069 39.721957 -0.101510 -0.533364 4.119054 0.000000 0.000000 0.000000 -33.591271 11.077263 -42.603630 28.585189 2.387677 20.102523 -27.563370 -45.594080 30.101430 0.000000 0.000000 0.000000 16.339129 9.259249 52.535254 5.189006 -0.864280 -27.082188 -2.537516 -9.019002 23.074175 2.110632 -4.358456 -30.658750 0.000000 0.000000 0.000000 -21.475344 -14.156521 18.454276 -47.859945 -31.722685 3.750736 -22.293660 -74.061811 28.314528 0.000000 0.000000 0.000000 -16.205753 29.296006 9.038525 2.842090 45.585128 -8.993320 -54.450974 8.812976 -12.004226 0.000000 0.000000 0.000000 
-0.002802 0.874362 0.019991 6.560448 -74.160343 12.609660 2.847497 14.867899 -44.745045 1.012396 9.249263 38.305833 -0.461242 -1.072032 4.014141 0.000000 0.000000 0.000000 -33.586516 10.900232 -42.221193 28.038746 2.295892 19.700305 -27.470361 -45.143914 30.925782 0.000000 0.000000 0.000000 16.496351 9.086436 52.557264 4.977452 -0.852069 -26.949597 -2.399966 -9.141088 22.964425 1.922648 -4.241953 -30.561123 0.000000 0.000000 0.000000 -20.172729 -13.650621 17.380923 -50.359639 -30.353068 4.042067 -22.342429 -73.258473 28.319651 0.000000 0.000000 0.000000 -16.733485 28.008904 9.066195 3.382301 46.525158 -9.248756 -55.951556 11.535446 -13.968164 0.000000 0.000000 0.000000 
-0.003505 0.878969 0.018236 7.038975 -73.605594 12.548445 2.951529 14.410768 -44.131771 0.476581 9.001908 36.964665 -1.052703 -1.951338 3.625005 0.000000 0.000000 0.000000 -33.335435 10.784865 -41.956952 27.251640 2.248448 19.130014 -27.328127 -44.708751 31.670060 0.000000 0.000000 0.000000 16.284674 8.876667 52.047615 4.926962 -0.855842 -26.714854 -2.239764 -8.740839 23.314616 2.222704 -4.335527 -30.818550 0.000000 0.000000 0.000000 -19.055414 -13.016780 16.414423 -52.255834 -30.081385 4.647151 -19.418066 -72.798490 26.211789 0.000000 0.000000 0.000000 -17.878754 26.671045 9.175389 3.542321 47.335234 -9.734772 -58.070763 12.480256 -15.385019 0.000000 0.000000 0.000000 
